<?xml version="1.0" encoding="UTF-8" standalone="no"?>
<!-- Created with Inkscape (http://www.inkscape.org/) -->

<svg
   xmlns:dc="http://purl.org/dc/elements/1.1/"
   xmlns:cc="http://creativecommons.org/ns#"
   xmlns:rdf="http://www.w3.org/1999/02/22-rdf-syntax-ns#"
   xmlns:svg="http://www.w3.org/2000/svg"
   xmlns="http://www.w3.org/2000/svg"
   xmlns:sodipodi="http://sodipodi.sourceforge.net/DTD/sodipodi-0.dtd"
   xmlns:inkscape="http://www.inkscape.org/namespaces/inkscape"
   width="1800"
   height="1659"
   id="svg2"
   sodipodi:version="0.32"
   inkscape:version="0.47 r22583"
   version="1.0"
   inkscape:output_extension="org.inkscape.output.svg.inkscape"
   sodipodi:modified="true"
   sodipodi:docname="Ethernet_plug_grey.svg">
  <defs
     id="defs4">
    <inkscape:perspective
       sodipodi:type="inkscape:persp3d"
       inkscape:vp_x="0 : 829.5 : 1"
       inkscape:vp_y="0 : 1000 : 0"
       inkscape:vp_z="1800 : 829.5 : 1"
       inkscape:persp3d-origin="900 : 553 : 1"
       id="perspective74" />
    <inkscape:perspective
       id="perspective3754"
       inkscape:persp3d-origin="0.5 : 0.33333333 : 1"
       inkscape:vp_z="1 : 0.5 : 1"
       inkscape:vp_y="0 : 1000 : 0"
       inkscape:vp_x="0 : 0.5 : 1"
       sodipodi:type="inkscape:persp3d" />
    <inkscape:perspective
       id="perspective3754-7"
       inkscape:persp3d-origin="0.5 : 0.33333333 : 1"
       inkscape:vp_z="1 : 0.5 : 1"
       inkscape:vp_y="0 : 1000 : 0"
       inkscape:vp_x="0 : 0.5 : 1"
       sodipodi:type="inkscape:persp3d" />
    <inkscape:perspective
       id="perspective3785"
       inkscape:persp3d-origin="0.5 : 0.33333333 : 1"
       inkscape:vp_z="1 : 0.5 : 1"
       inkscape:vp_y="0 : 1000 : 0"
       inkscape:vp_x="0 : 0.5 : 1"
       sodipodi:type="inkscape:persp3d" />
    <inkscape:perspective
       id="perspective3807"
       inkscape:persp3d-origin="0.5 : 0.33333333 : 1"
       inkscape:vp_z="1 : 0.5 : 1"
       inkscape:vp_y="0 : 1000 : 0"
       inkscape:vp_x="0 : 0.5 : 1"
       sodipodi:type="inkscape:persp3d" />
    <inkscape:perspective
       id="perspective3807-4"
       inkscape:persp3d-origin="0.5 : 0.33333333 : 1"
       inkscape:vp_z="1 : 0.5 : 1"
       inkscape:vp_y="0 : 1000 : 0"
       inkscape:vp_x="0 : 0.5 : 1"
       sodipodi:type="inkscape:persp3d" />
    <inkscape:perspective
       id="perspective3807-8"
       inkscape:persp3d-origin="0.5 : 0.33333333 : 1"
       inkscape:vp_z="1 : 0.5 : 1"
       inkscape:vp_y="0 : 1000 : 0"
       inkscape:vp_x="0 : 0.5 : 1"
       sodipodi:type="inkscape:persp3d" />
    <inkscape:perspective
       id="perspective3807-45"
       inkscape:persp3d-origin="0.5 : 0.33333333 : 1"
       inkscape:vp_z="1 : 0.5 : 1"
       inkscape:vp_y="0 : 1000 : 0"
       inkscape:vp_x="0 : 0.5 : 1"
       sodipodi:type="inkscape:persp3d" />
    <inkscape:perspective
       id="perspective3886"
       inkscape:persp3d-origin="0.5 : 0.33333333 : 1"
       inkscape:vp_z="1 : 0.5 : 1"
       inkscape:vp_y="0 : 1000 : 0"
       inkscape:vp_x="0 : 0.5 : 1"
       sodipodi:type="inkscape:persp3d" />
    <filter
       inkscape:collect="always"
       id="filter3900">
      <feGaussianBlur
         inkscape:collect="always"
         stdDeviation="4.6345313"
         id="feGaussianBlur3902" />
    </filter>
    <filter
       inkscape:collect="always"
       id="filter3904">
      <feGaussianBlur
         inkscape:collect="always"
         stdDeviation="4.6345313"
         id="feGaussianBlur3906" />
    </filter>
  </defs>
  <sodipodi:namedview
     id="base"
     pagecolor="#ffffff"
     bordercolor="#666666"
     borderopacity="1.0"
     gridtolerance="10000"
     guidetolerance="10"
     objecttolerance="10"
     inkscape:pageopacity="0.0"
     inkscape:pageshadow="2"
     inkscape:zoom="0.25"
     inkscape:cx="1176.3177"
     inkscape:cy="838.7969"
     inkscape:document-units="px"
     inkscape:current-layer="layer1"
     inkscape:window-width="1280"
     inkscape:window-height="972"
     inkscape:window-x="-4"
     inkscape:window-y="-4"
     showguides="true"
     inkscape:guide-bbox="true"
     showgrid="false"
     inkscape:window-maximized="1" />
  <metadata
     id="metadata7">
    <rdf:RDF>
      <cc:Work
         rdf:about="">
        <dc:format>image/svg+xml</dc:format>
        <dc:type
           rdf:resource="http://purl.org/dc/dcmitype/StillImage" />
      </cc:Work>
    </rdf:RDF>
  </metadata>
  <g
     inkscape:label="Layer 1"
     inkscape:groupmode="layer"
     id="layer1"
     transform="translate(525, 297.138)">
    <path
       style="fill:#dddddd"
       d="m -435,-346.70925 c 0,0 73.75157,427.92761 270,640.00001 80.1168,86.57681 156.26638,144.32517 331.42857,185.71428 87.5117,20.67816 120.19995,29.23745 159.79282,51.74952 C 363.01419,551.67453 395,607.57647 395,607.57647 l 125.7143,-85.71429 c 0,0 -83.01718,-85.62308 -113.21429,-101.78572 C 373.53738,401.89837 304.9705,378.87277 215,360.43361 99.53766,336.76997 -56.42857,324.71933 -196.42857,81.86218 -356.252,-195.38254 -365.00368,-349.56639 -365.00368,-349.56639 L -435,-346.70925 z"
       id="CordBase"
       sodipodi:nodetypes="csssccssscc" />
    <path
       style="fill:#bbbbbb;filter:url(#filter3900)"
       d="m -432.375,-346.79382 -2.625,0.0937 c 0,0 73.75157,427.927597 270,640 80.1168,86.5768 156.275314,144.32964 331.4375,185.71875 87.51168,20.67814 120.18838,29.23793 159.78125,51.75 C 363.01157,551.68863 395,607.58118 395,607.58118 l 69.4375,-47.34375 -25.42898,10.40246 c 0,0 -104.41667,-86.39018 -215.24908,-103.06064 C 123.41019,452.48558 -79.964922,406.8842 -212.75,209.92114 -341.01034,19.669728 -420.19811,-295.71729 -432.375,-346.79382 z"
       id="CordShadow"
       sodipodi:nodetypes="ccssscccssc" />
    <path
       style="fill:#dddddd"
       d="m 346.71939,588.77771 c -13.62944,-48.88226 -17.39537,-63.69937 -21.32646,-82.64007 -3.66549,-17.66098 1.3329,-27.99099 17.32775,-35.98842 29.3239,-14.66196 150.64772,-60.11259 161.28142,-63.9794 10.9965,-3.99871 21.9347,-4.35854 53.3162,0 47.9846,6.66451 181.8802,74.64853 225.2608,102.63362 66.2909,40.9652 120.5478,96.64795 174.6105,151.95109 0,0 25.3251,21.32647 31.9897,54.64905 6.6645,33.3226 35.9884,162.6143 35.9884,162.6143 0,0 11.9961,25.3252 -14.6619,39.9871 -26.6581,14.662 -323.8958,159.94862 -323.8958,159.94862 0,0 -34.6555,21.3265 -62.6465,-25.3252 -27.991,-46.6516 -83.973,-137.28912 -83.973,-137.28912 0,0 -26.6581,-43.9859 -31.9897,-73.3098 -5.3316,-29.3239 -39.98712,-67.9781 -39.98712,-67.9781 0,0 -41.63478,-60.9225 -78.64135,-93.30329 -42.65293,-37.32131 -28.93171,-42.75893 -42.65294,-91.97038 z"
       id="BootBase"
       sodipodi:nodetypes="czszsccscscscscsz" />
    <path
       style="fill:#bbbbbb"
       d="m 981.87462,693.8619 c -28.8741,13.42 -105.9264,49.096 -344.6875,159.125 -38.6602,17.8159 -40.8499,25.8739 -32.8125,52.5313 44.1878,146.5564 51.0566,169.5303 52.9688,175.9687 16.3877,4.3695 29.2812,-3.5313 29.2812,-3.5312 0,0 297.2168,-145.2756 323.87498,-159.9375 26.658,-14.662 14.6562,-40 14.6563,-40 0,0 -29.30428,-129.3024 -35.96878,-162.625 -1.58,-7.8998 -4.2211,-15.10429 -7.3125,-21.5313 z"
       id="BootFace" />
    <path
       style="fill:#eeeeee"
       d="m 551.372,828.95258 c 43.1417,45.1224 43.2936,44.7795 62.7788,108.5027 -19.651,-63.8446 -19.5353,-63.6321 37.0665,-91.0493 -56.5322,27.3015 -56.7205,27.5088 -99.8453,-17.4534 z"
       id="BootHighlight"
       sodipodi:nodetypes="cccc" />
    <path
       style="fill:#bbbbbb"
       d="m 447.43714,671.08257 c -1.44775,-16.72586 -1.78223,-19.89615 15.15717,-28.63543 l 115.63331,-59.65689 c 6.43655,-3.32071 9.05813,-4.58053 5.41373,-9.50042 -4.3434,-5.86355 -4.18198,-5.44591 -12.42305,-1.35255 l -114.9298,57.08598 c -13.93624,6.92217 -19.75871,12.99238 -14.10198,33.99484 1.06757,3.60381 13.03716,45.73485 14.4976,48.44774 -0.16405,-3.37899 -9.03395,-37.92213 -9.24698,-40.38327 z"
       id="path45958"
       sodipodi:nodetypes="csssssccs" />
    <path
       style="fill:#bbbbbb"
       d="m 758.31242,494.30011 -111.1875,47.09375 c -3.18672,1.34974 -4.889,3.97216 -3.2812,7.1875 1.5999,3.2 3.94789,3.96553 6.375,2.96875 l 121.0625,-49.71875 -12.9688,-7.53125 z"
       id="path8989"
       sodipodi:nodetypes="cssscc" />
    <path
       style="fill:#bbbbbb"
       d="m 712.28083,469.55004 c -44.7364,18.54365 -102.0157,42.40856 -132.2188,55.59375 -52.6683,22.9924 -91.1766,41.69804 -126.3125,59.09375 -25.5,12.625 -30.32146,24.40995 -27.75,37.625 1.90403,9.78504 10.06617,46.80359 12,46.59375 1.90226,-0.2064 -1.4431,-15.6312 -2,-19.59375 -3.44861,-24.53799 -8.00477,-29.64431 18,-43.15625 9.1354,-4.7467 95.5753,-47.85303 135.7188,-64.78125 28.503,-12.01949 100.0387,-41.86834 143.9375,-60.1875 -6.8332,-3.6507 -13.979,-7.39534 -21.375,-11.1875 z"
       id="path10932" />
    <path
       style="fill:#bbbbbb"
       d="m 676.43716,451.76805 c -39.4468,14.95686 -86.0589,32.65489 -88.2812,33.71875 -6.7263,3.21992 -7.0483,4.98378 -4,8.96875 2.5944,3.39179 3.43799,3.54622 7.5937,2 l 100.0313,-37.21875 -15.3438,-7.46875 z"
       id="path11906"
       sodipodi:nodetypes="cssscc" />
    <path
       style="fill:#bbbbbb"
       d="m 634.28156,432.48684 -92.6563,36.5625 -125.90625,58.375 c -25.81458,11.96863 -28.66519,24.09747 -26.09375,37.3125 1.90403,9.78504 10.75368,49.14732 12.6875,48.9375 1.90226,-0.2064 -1.44309,-15.66247 -2,-19.625 -3.44861,-24.53799 -13.64052,-36.78927 13,-49 l 140.3125,-64.3125 100.9688,-39.21875 -20.3125,-9.03125 z"
       id="path12880"
       sodipodi:nodetypes="ccsssssccc" />
    <path
       style="fill:#bbbbbb"
       d="m 602.12545,419.36181 -72.25,28.1875 c -4.75531,1.85523 -5.4202,3.00337 -3.8125,6.21875 1.6,3.2 3.43366,3.05854 6.4063,2 l 85.125,-30.3125 -15.4688,-6.09375 z"
       id="path13854"
       sodipodi:nodetypes="cssscc" />
    <path
       style="fill:#bbbbbb"
       d="m 559.28083,406.45631 -91.5938,32.78125 -90.5625,41.03125 c -25.91811,11.74275 -30.32144,19.06621 -27.75,32.28125 1.90403,9.78504 10.37865,47.49107 12.3125,47.28125 1.90226,-0.2064 -1.44312,-15.63122 -2,-19.59375 -3.44861,-24.53799 -12.18111,-32.8837 14.34375,-45.34375 l 98.65625,-46.34375 106.0625,-37.28125 -19.4687,-4.8125 z"
       id="path14828"
       sodipodi:nodetypes="ccsssssccc" />
    <path
       style="fill:#bbbbbb"
       d="m 370.28145,619.83093 c -4.38386,-0.35566 2.0625,18 2.0625,18 l 12.125,38.53125 c 1.55329,1.41695 3.17224,2.85774 4.90625,4.375 2.12641,1.86061 4.25806,3.84289 6.40625,5.875 l -12.1875,-40.75 c 10e-6,-10e-6 -5.67487,-20.45989 -10.71875,-24.625 -1.11838,-0.92353 -1.96748,-1.35544 -2.59375,-1.40625 z"
       id="path15802" />
    <path
       style="fill:#bbbbbb"
       d="m 459.93714,472.83063 -75.53125,38.8125 c -13.84035,7.112 -18.53173,14.62254 -12.875,35.625 5.79031,21.49842 32.19045,128.14551 38.53125,153.78125 2.58672,2.7771 5.1544,5.6053 7.6875,8.4688 -8.04064,-32.20668 -27.48747,-109.16442 -40.15625,-150.93755 -4.98562,-16.43923 -3.12777,-27.85287 13.9375,-36.34375 l 76.625,-38.125 c 7.29719,-3.63074 7.45725,-5.79836 5.03125,-9.09375 -3.7173,-6.10338 -7.59105,-4.95393 -13.25,-2.1875 z"
       id="path16777"
       sodipodi:nodetypes="cssccssscc" />
    <path
       style="fill:#bbbbbb"
       d="m 418.40607,678.20593 c -2.35917,-0.10256 2.5625,13.84375 2.5625,13.84375 l 10.4375,33.5313 c 2.75908,3.3615 5.37932,6.6712 7.9375,9.9062 l -12.46875,-41.84375 c 2e-5,-10e-6 -3.75343,-11.25346 -6.96875,-14.46875 -0.66986,-0.66985 -1.16298,-0.9541 -1.5,-0.96875 z"
       id="path17751" />
    <path
       style="fill:#bbbbbb"
       d="m 517.81289,512.29918 -96.25,47.75 c -13.93958,6.91548 -18.53173,14.62254 -12.875,35.625 5.76252,21.39518 37.58352,131.6224 45.5625,159.25 3.3704,4.5418 5.99622,8.1385 8.21875,11.25 -6.62987,-22.0616 -33.38025,-111.09627 -47.71875,-158.375 -4.9856,-16.43923 -1.70514,-22.20487 15.15625,-31.09375 l 97.75005,-51.53125 c 6.40691,-3.37755 7.0506,-5.79886 3.4062,-10.71875 -3.77631,-6.1816 -7.52964,-4.72957 -13.25,-2.15625 z"
       id="path18725"
       sodipodi:nodetypes="cssccssscc" />
    <path
       style="fill:#bbbbbb"
       d="m 461.6558,740.70598 c -1.55212,0.6231 2.59375,14 2.59375,14 l 7.34375,23.5625 c 2.05193,2.4485 4.65295,5.6162 7.87505,9.8437 l -9.87505,-31.8125 c 0,0 -4.2627,-11.7893 -6.40625,-14.4687 -0.73975,-0.9247 -1.24382,-1.2404 -1.53125,-1.125 z"
       id="path19699" />
    <!-- Cord -->
    <!-- Boot -->
    <!-- Plug -->
    <g
       id="PlugBody">
      <!-- Plug base -->
      <path
         d="m 654.8773,997.56068 c -8.205,-31.1789 -39.3839,-83.6909 18.051,-108.3058 57.4349,-24.615 244.0123,-114.4107 255.3036,-121.3059 25.487,-15.564 35.025,-16.2299 58.6139,9.564 56.6136,63.1251 119.5277,119.9647 179.8178,179.4588 23.8725,23.3962 29.8153,31.9859 35.3069,63.92192 5.5053,32.0158 10.6928,61.3659 12.2278,73.0498 1.4774,11.2455 5.7977,24.0126 -13.7148,34.179 L 894.463,1294.5813 c 0,0 -32.82,24.615 -62.3579,-14.769 -29.538,-39.3839 -136.2028,-191.9967 -136.2028,-191.9967 0,0 -18.051,-19.692 -41.025,-90.25492 z"
         style="fill:#ffffff"
         id="PlugBase"
         sodipodi:nodetypes="cssccssccscc" />
      <!-- Plug clip -->
      <g
         id="PlugClip">
        <!-- Plug clip base -->
        <path
           style="fill:#eeeeee"
           d="m 1134.3973,1146.7996 c 0,0 7.4448,7.0041 12.8434,13.5189 5.3986,6.5148 8.7511,12.5402 9.1408,22.0153 0.8203,19.9484 1.8501,21.3293 1.5625,30.0269 -0.6573,19.8792 -4.9003,25.1607 -30.4595,41.1961 -40.1823,21.547 -65.4456,36.0784 -103.3058,56.4349 -37.43521,20.128 -45.85304,18.1963 -62.43491,-3.923 -23.16917,-30.9064 -35.33273,-47.3223 -35.33273,-47.3223 l 207.98624,-111.9468 z"
           id="PlugClipBase"
           sodipodi:nodetypes="cszsczccc" />
        <!-- Plug clip top -->
        <path
           style="fill:#dddddd"
           d="m 1134.4065,1146.7994 -185.8125,100 23.625,31.7188 183.5937,-101.4375 c -1.2235,-6.6324 -4.2307,-11.5225 -8.5625,-16.75 -5.3986,-6.5149 -12.8438,-13.5313 -12.8437,-13.5313 z"
           id="PlugClipTop" />
        <!-- Plug clip highlight -->
        <path
           style="fill:#ffffff"
           d="m 958.4,1259.8622 c 13.7828,18.5242 13.9176,18.4556 20.6,39 -6.6896,-20.4918 -6.7487,-20.4257 20.9,-35.7 -27.6327,15.297 -27.7056,15.2157 -41.5,-3.3 z"
           id="PlugClipHighlight"
           sodipodi:nodetypes="cccc" />
      </g>
      <!-- Plug front -->
      <path
         d="M 1189.3122,982.58133 821.6872,1169.8 l 0.5313,0.7188 31.75,128.0625 c 21.8383,9.9901 40.4999,-4.0001 40.5,-4 l 306,-166.4688 c 19.5125,-10.1664 15.1962,-22.9107 13.7187,-34.1562 -1.535,-11.6839 -6.7134,-41.0467 -12.2187,-73.0625 -3.066,-17.8297 -6.2676,-28.39737 -12.6563,-38.31247 z M 853.9685,1298.5813 c -0.4456,-0.2039 -0.8957,-0.4321 -1.3438,-0.6563 0.4501,0.2252 0.8962,0.4515 1.3438,0.6563 z M 771.531,1195.3625 c 5.4897,7.7624 10.6974,15.1285 16,22.5938 -5.2392,-7.3795 -10.5783,-14.9278 -16,-22.5938 z m 19.9687,28.1875 c 5.2372,7.3633 10.4328,14.6251 15.1563,21.2188 -4.7399,-6.6215 -9.9006,-13.8256 -15.1563,-21.2188 z m 51.5938,68.0625 c 0.4577,0.3835 0.9179,0.7349 1.375,1.0938 -0.458,-0.3598 -0.9164,-0.7093 -1.375,-1.0938 z"
         style="fill:#dddddd"
         id="PlugFront" />
      <!-- Plug side -->
      <path
         d="m 639.43767,928.76867 c -2.7671,23.4983 10.4962,50.0043 15.4375,68.78121 22.974,70.56292 41.0312,90.28132 41.0313,90.28132 0,0 106.6494,152.5848 136.1875,191.9687 7.269,9.6922 14.7464,15.5202 21.875,18.7813 l -31.75,-128.0625 -182.7813,-241.75003 z"
         style="fill:#eeeeee"
         id="PlugSide"
         sodipodi:nodetypes="cccsccc" />
      <!-- Plug highlight -->
      <path
         d="m 808.61521,1152.4726 c 13.04283,17.4795 13.04499,17.4808 18.84393,39.3 -5.7947,-21.8118 -5.68951,-21.8946 22.96032,-36.603 -28.63383,14.6876 -28.74982,14.774 -41.80425,-2.697 z"
         style="fill:#ffffff;fill-opacity:1;fill-rule:evenodd;stroke:none"
         id="PlugHighlight"
         sodipodi:nodetypes="cccc" />
    </g>
    <path
       style="fill:#ffcc00"
       d="m 842.97464,1067.8788 -8.88893,4.5934 48.39308,66.3426 14.17418,34.7071 13.86674,-6.6039 -15.00779,-34.8343 -52.53728,-64.2049 z"
       id="Pin8"
       sodipodi:nodetypes="ccccccc" />
    <path
       style="fill:#ffcc00"
       d="m 874.93721,1051.5856 -8.88893,4.5934 48.39308,66.3426 14.17418,34.7071 13.86674,-6.6039 -15.00779,-34.8343 -52.53728,-64.2049 z"
       id="Pin7"
       sodipodi:nodetypes="ccccccc" />
    <path
       style="fill:#ffcc00"
       d="m 906.72609,1035.1503 -8.88893,4.5934 48.39308,66.3427 14.17418,34.7071 13.86674,-6.6039 -15.00779,-34.8343 -52.53728,-64.205 z"
       id="Pin6"
       sodipodi:nodetypes="ccccccc" />
    <path
       style="fill:#ffcc00"
       d="m 938.72609,1018.9003 -8.88893,4.5934 48.39308,66.3427 14.17418,34.7071 13.86678,-6.6039 -15.00783,-34.8343 -52.53728,-64.205 z"
       id="Pin5"
       sodipodi:nodetypes="ccccccc" />
    <path
       style="fill:#ffcc00"
       d="m 970.60109,1002.5253 -8.88893,4.5934 48.39304,66.3427 14.1742,34.7071 13.8668,-6.6039 -15.0078,-34.8343 -52.53731,-64.205 z"
       id="Pin4"
       sodipodi:nodetypes="ccccccc" />
    <path
       style="fill:#ffcc00"
       d="m 1002.4761,986.15035 -8.8889,4.5934 48.393,66.34265 14.1742,34.7071 13.8668,-6.6039 -15.0078,-34.8344 -52.5373,-64.20485 z"
       id="Pin3"
       sodipodi:nodetypes="ccccccc" />
    <path
       style="fill:#ffcc00"
       d="m 1034.4761,969.90035 -8.8889,4.5934 48.393,66.34255 14.1742,34.7072 13.8668,-6.6039 -15.0078,-34.8344 -52.5373,-64.20485 z"
       id="Pin2"
       sodipodi:nodetypes="ccccccc" />
    <path
       style="fill:#ffcc00"
       d="m 1066.3511,953.52535 -8.8889,4.5934 48.393,66.34255 14.1742,34.7072 13.8668,-6.6039 -15.0078,-34.8344 -52.5373,-64.20485 z"
       id="Pin1"
       sodipodi:nodetypes="ccccccc" />
    <g
       id="PinGrooveSides"
       style="fill:#eeeeee">
      <!-- Pin groove side 8 -->
      <path
         sodipodi:nodetypes="ccccccc"
         id="PinGrooveSide8"
         d="m 921.7273,1175.8622 -11.9524,-9.1507 -14.8792,-34.1862 -52.1684,-64.754 3.1818,-10.5455 57,71.1819 18.8182,47.4545 z" />
      <!-- Pin groove side 7 -->
      <path
         sodipodi:nodetypes="ccccccc"
         id="PinGrooveSide7"
         d="m 953.68987,1159.569 -11.9524,-9.1507 -14.8792,-34.1862 -52.1684,-64.754 3.1818,-10.5455 57,71.1819 18.8182,47.4545 z" />
      <!-- Pin groove side 6 -->
      <path
         sodipodi:nodetypes="ccccccc"
         id="PinGrooveSide6"
         d="m 985.47875,1143.1337 -11.9524,-9.1507 -14.8792,-34.1862 -52.1684,-64.754 3.1818,-10.5455 57,71.1819 18.8182,47.4545 z" />
      <!-- Pin groove side 5 -->
      <path
         sodipodi:nodetypes="ccccccc"
         id="PinGrooveSide5"
         d="m 1017.4787,1126.8837 -11.9524,-9.1507 -14.87915,-34.1862 -52.1684,-64.754 3.1818,-10.5455 56.99995,71.1819 18.8182,47.4545 z" />
      <!-- Pin groove side 4 -->
      <path
         sodipodi:nodetypes="ccccccc"
         id="PinGrooveSide4"
         d="m 1049.3537,1110.5087 -11.9524,-9.1507 -14.8792,-34.1862 -52.16835,-64.754 3.1818,-10.54547 56.99995,71.18187 18.8182,47.4545 z" />
      <!-- Pin groove side 3 -->
      <path
         sodipodi:nodetypes="ccccccc"
         id="PinGrooveSide3"
         d="m 1081.2287,1094.1337 -11.9524,-9.1507 -14.8792,-34.1862 -52.1684,-64.75397 3.1818,-10.5455 57,71.18187 18.8182,47.4545 z" />
      <!-- Pin groove side 2 -->
      <path
         sodipodi:nodetypes="ccccccc"
         id="PinGrooveSide2"
         d="m 1113.2287,1077.8837 -11.9524,-9.1507 -14.8792,-34.1862 -52.1684,-64.75397 3.1818,-10.5455 57,71.18187 18.8182,47.4545 z" />
      <!-- Pin groove side 1 -->
      <path
         sodipodi:nodetypes="ccccccc"
         id="PinGrooveSide1"
         d="m 1145.1037,1061.5087 -11.9524,-9.1507 -14.8792,-34.1862 -52.1684,-64.75397 3.1818,-10.5455 57,71.18187 18.8182,47.4545 z" />
    </g>
    <g
       id="PinGrooveBacks"
       style="fill:#dddddd">
      <!-- Pin groove back 8 -->
      <path
         sodipodi:nodetypes="ccccc"
         id="PinGrooveBack8"
         d="m 829.2698,1065.9389 16.6407,-8.7117 -3.0014,10.8168 -8.7273,4.6364 -4.912,-6.7415 z" />
      <!-- Pin groove back 7 -->
      <path
         sodipodi:nodetypes="ccccc"
         id="PinGrooveBack7"
         d="m 861.23237,1049.6457 16.6407,-8.7117 -3.0014,10.8168 -8.7273,4.6364 -4.912,-6.7415 z" />
      <!-- Pin groove back 6 -->
      <path
         sodipodi:nodetypes="ccccc"
         id="PinGrooveBack6"
         d="m 893.02125,1033.2104 16.6407,-8.7117 -3.0014,10.8168 -8.7273,4.6364 -4.912,-6.7415 z" />
      <!-- Pin groove back 5 -->
      <path
         sodipodi:nodetypes="ccccc"
         id="PinGrooveBack5"
         d="m 925.02125,1016.9604 16.6407,-8.7117 -3.0014,10.8168 -8.7273,4.6364 -4.912,-6.7415 z" />
      <!-- Pin groove back 4 -->
      <path
         sodipodi:nodetypes="ccccc"
         id="PinGrooveBack4"
         d="m 956.89625,1000.5854 16.6407,-8.71167 -3.0014,10.81677 -8.7273,4.6364 -4.912,-6.7415 z" />
      <!-- Pin groove back 3 -->
      <path
         sodipodi:nodetypes="ccccc"
         id="PinGrooveBack3"
         d="m 988.7712,984.21043 16.6407,-8.7117 -3.0014,10.8168 -8.7273,4.6364 -4.912,-6.7415 z" />
      <!-- Pin groove back 2 -->
      <path
         sodipodi:nodetypes="ccccc"
         id="PinGrooveBack2"
         d="m 1020.7712,967.96043 16.6407,-8.7117 -3.0014,10.8168 -8.7273,4.6364 -4.912,-6.7415 z" />
      <!-- Pin groove back 1 -->
      <path
         sodipodi:nodetypes="ccccc"
         id="PinGrooveBack1"
         d="m 1052.6462,951.58543 16.6407,-8.7117 -3.0014,10.8168 -8.7273,4.6364 -4.912,-6.7415 z" />
    </g>
    <g
       id="PinGrooveBottoms"
       style="fill:#ffffff">
      <!-- Pin groove bottom 8 -->
      <path
         sodipodi:nodetypes="ccccc"
         id="PinGrooveBottom8"
         d="m 901.9415,1186.4555 -5.3033,-12.9489 13.9218,-7.1385 11.1501,9.4759 -19.7686,10.6115 z" />
      <!-- Pin groove bottom 7 -->
      <path
         sodipodi:nodetypes="ccccc"
         id="PinGrooveBottom7"
         d="m 933.90407,1170.1623 -5.3033,-12.9489 13.9218,-7.1385 11.1501,9.4759 -19.7686,10.6115 z" />
      <!-- Pin groove bottom 6 -->
      <path
         sodipodi:nodetypes="ccccc"
         id="PinGrooveBottom6"
         d="m 965.69295,1153.727 -5.3033,-12.9489 13.9218,-7.1385 11.1501,9.4759 -19.7686,10.6115 z" />
      <!-- Pin groove bottom 5 -->
      <path
         sodipodi:nodetypes="ccccc"
         id="PinGrooveBottom5"
         d="m 997.6929,1137.477 -5.30325,-12.9489 13.92175,-7.1385 11.1501,9.4759 -19.7686,10.6115 z" />
      <!-- Pin groove bottom 4 -->
      <path
         sodipodi:nodetypes="ccccc"
         id="PinGrooveBottom4"
         d="m 1029.5679,1121.102 -5.3033,-12.9489 13.9218,-7.1385 11.1501,9.4759 -19.7686,10.6115 z" />
      <!-- Pin groove bottom 3 -->
      <path
         sodipodi:nodetypes="ccccc"
         id="PinGrooveBottom3"
         d="m 1061.4429,1104.727 -5.3033,-12.9489 13.9218,-7.1385 11.1501,9.4759 -19.7686,10.6115 z" />
      <!-- Pin groove bottom 2 -->
      <path
         sodipodi:nodetypes="ccccc"
         id="PinGrooveBottom2"
         d="m 1093.4429,1088.477 -5.3033,-12.9489 13.9218,-7.1385 11.1501,9.4759 -19.7686,10.6115 z" />
      <!-- Pin groove bottom 1 -->
      <path
         sodipodi:nodetypes="ccccc"
         id="PinGrooveBottom1"
         d="m 1125.3179,1072.102 -5.3033,-12.9489 13.9218,-7.1385 11.1501,9.4759 -19.7686,10.6115 z" />
    </g>
    <path
       style="fill:#000000;stroke:none;stroke-width:1px;stroke-linecap:butt;stroke-linejoin:miter;stroke-opacity:1;fill-opacity:0.21808511"
       d="m 1407.4844,1435.9766 12.4219,-6.3047 14.8906,34.2187 -13.1602,6.75 -14.1523,-34.664 z"
       id="path2972"
       transform="translate(-525,-297.138)" />
    <path
       style="fill:#000000;fill-opacity:0.21808514;stroke:none"
       d="m 914.44921,1122.5418 12.4219,-6.3047 14.8906,34.2187 -13.1602,6.75 -14.1523,-34.664 z"
       id="path2972-1" />
    <path
       style="fill:#000000;fill-opacity:0.21808514;stroke:none"
       d="m 946.26917,1106.1631 12.4219,-6.3047 14.8906,34.2187 -13.1602,6.75 -14.1523,-34.664 z"
       id="path2972-4" />
    <path
       style="fill:#000000;fill-opacity:0.21808514;stroke:none"
       d="m 978.2812,1089.8699 12.4219,-6.3047 14.8906,34.2187 -13.1602,6.75 -14.1523,-34.664 z"
       id="path2972-4-0" />
    <path
       style="fill:#000000;fill-opacity:0.21808514;stroke:none"
       d="m 1010.1117,1073.4879 12.4219,-6.3047 14.8906,34.2187 -13.1602,6.75 -14.1523,-34.664 z"
       id="path2972-4-0-9" />
    <path
       style="fill:#000000;fill-opacity:0.21808514;stroke:none"
       d="m 1042.0367,1057.1941 12.4219,-6.3047 14.8906,34.2187 -13.1602,6.75 -14.1523,-34.664 z"
       id="path2972-4-0-8" />
    <path
       style="fill:#000000;fill-opacity:0.21808514;stroke:none"
       d="m 1074.0775,1040.9748 12.4219,-6.3047 14.8906,34.2187 -13.1602,6.75 -14.1523,-34.664 z"
       id="path2972-4-0-2" />
    <path
       style="fill:#000000;fill-opacity:0.21808514;stroke:none"
       d="m 1105.8973,1024.5346 12.4219,-6.3047 14.8906,34.2187 -13.1602,6.75 -14.1523,-34.664 z"
       id="path2972-4-0-5" />
  </g>
</svg>
